<svg width="28" height="32" viewBox="0 0 40 32" fill="none" xmlns="http://www.w3.org/2000/svg">
<path d="M31.5 22H8.525C8.25 22 8.025 22.225 8.025 22.5L8.01875 25.5C8.01875 25.775 8.24375 26 8.51875 26H31.5C31.775 26 32 25.775 32 25.5V22.5C32 22.225 31.775 22 31.5 22ZM31.5 28H8.50625C8.23125 28 8.00625 28.225 8.00625 28.5L8 31.5C8 31.775 8.225 32 8.5 32H31.5C31.775 32 32 31.775 32 31.5V28.5C32 28.225 31.775 28 31.5 28ZM31.5 16H8.5375C8.2625 16 8.0375 16.225 8.0375 16.5L8.03125 19.5C8.03125 19.775 8.25625 20 8.53125 20H31.5C31.775 20 32 19.775 32 19.5V16.5C32 16.225 31.775 16 31.5 16ZM38.1562 7.3125L21.15 0.231248C20.7845 0.0796097 20.3926 0.0015564 19.9969 0.0015564C19.6011 0.0015564 19.2093 0.0796097 18.8438 0.231248L1.84375 7.3125C0.73125 7.78125 0 8.86875 0 10.0812V31.5C0 31.775 0.225 32 0.5 32H5.5C5.775 32 6 31.775 6 31.5V16C6 14.9 6.9125 14 8.0375 14H31.9625C33.0875 14 34 14.9 34 16V31.5C34 31.775 34.225 32 34.5 32H39.5C39.775 32 40 31.775 40 31.5V10.0812C40 8.86875 39.2687 7.78125 38.1562 7.3125Z" fill="#006E33"/>
</svg>
