<svg width="40" height="38" viewBox="0 0 38 38" fill="none" xmlns="http://www.w3.org/2000/svg">
<path d="M21.9919 26.7638C21.89 27.3875 21.7281 27.99 21.51 28.5662L23.4669 30.3394C23.1925 30.9169 22.88 31.4719 22.5194 31.9931L20.0069 31.1831C19.6106 31.6675 19.1669 32.1106 18.6825 32.5069L19.4925 35.0194C18.9712 35.38 18.4163 35.6919 17.8388 35.9669L16.0656 34.01C15.4894 34.2281 14.8875 34.39 14.2631 34.4919L13.705 37.0769C13.3894 37.1019 13.0725 37.125 12.75 37.125C12.4275 37.125 12.1106 37.1019 11.7944 37.0769L11.2362 34.4919C10.6125 34.39 10.01 34.2281 9.43375 34.01L7.66063 35.9669C7.08313 35.6925 6.52813 35.38 6.00688 35.0194L6.81687 32.5069C6.3325 32.1106 5.88937 31.6669 5.49312 31.1831L2.98062 31.9931C2.62 31.4719 2.30813 30.9169 2.03313 30.3394L3.99 28.5662C3.77188 27.99 3.61 27.3881 3.50812 26.7638L0.923125 26.2056C0.898125 25.8894 0.875 25.5725 0.875 25.25C0.875 24.9275 0.898125 24.6106 0.923125 24.2944L3.50812 23.7362C3.61 23.1125 3.77188 22.51 3.99 21.9338L2.03313 20.1606C2.3075 19.5831 2.62 19.0281 2.98062 18.5069L5.49312 19.3169C5.88937 18.8325 6.33313 18.3894 6.8175 17.9931L6.0075 15.4806C6.52875 15.12 7.08375 14.8081 7.66125 14.5331L9.43437 16.49C10.0106 16.2719 10.6125 16.11 11.2369 16.0081L11.795 13.4231C12.1106 13.3981 12.4275 13.375 12.75 13.375C13.0725 13.375 13.3894 13.3981 13.7056 13.4231L14.2638 16.0081C14.8875 16.11 15.49 16.2719 16.0662 16.49L17.8394 14.5331C18.4169 14.8075 18.9719 15.12 19.4931 15.4806L18.6831 17.9931C19.1675 18.3894 19.6106 18.8331 20.0069 19.3175L22.5194 18.5075C22.88 19.0287 23.1919 19.5838 23.4669 20.1613L21.51 21.9344C21.7281 22.5106 21.89 23.1125 21.9919 23.7369L24.5769 24.295C24.6019 24.6106 24.625 24.9275 24.625 25.25C24.625 25.5725 24.6019 25.8894 24.5769 26.2056L21.9919 26.7638ZM12.75 19C9.29813 19 6.5 21.7981 6.5 25.25C6.5 28.7019 9.29813 31.5 12.75 31.5C16.2019 31.5 19 28.7019 19 25.25C19 21.7981 16.2019 19 12.75 19Z" fill="#006E33"/>
<path d="M30.6619 9.19063C30.5644 9.51375 30.4369 9.82375 30.28 10.1156L31.2669 12.0069C30.9337 12.4281 30.5538 12.8081 30.1325 13.1412L28.2412 12.1544C27.9494 12.3119 27.6394 12.4394 27.3162 12.5363L26.6763 14.5737C26.4125 14.605 26.1462 14.625 25.875 14.625C25.6038 14.625 25.3375 14.605 25.0744 14.5744L24.4344 12.5369C24.1112 12.44 23.8012 12.3119 23.5094 12.155L21.6181 13.1419C21.1969 12.8088 20.8169 12.4288 20.4838 12.0075L21.4706 10.1162C21.3131 9.82437 21.1856 9.51437 21.0887 9.19125L19.0513 8.55125C19.02 8.2875 19 8.02125 19 7.75C19 7.47875 19.02 7.2125 19.0506 6.94938L21.0881 6.30937C21.185 5.98625 21.3131 5.67625 21.47 5.38438L20.4831 3.49312C20.8163 3.07188 21.1962 2.69187 21.6175 2.35875L23.5088 3.34562C23.8006 3.18813 24.1106 3.06063 24.4338 2.96375L25.0737 0.92625C25.3375 0.895 25.6038 0.875 25.875 0.875C26.1462 0.875 26.4125 0.895 26.6756 0.925625L27.3156 2.96312C27.6388 3.06 27.9487 3.18813 28.2406 3.345L30.1319 2.35813C30.5531 2.69125 30.9331 3.07125 31.2662 3.4925L30.2794 5.38375C30.4369 5.67562 30.5644 5.98563 30.6613 6.30875L32.6987 6.94875C32.73 7.2125 32.75 7.47875 32.75 7.75C32.75 8.02125 32.73 8.2875 32.6994 8.55062L30.6619 9.19063ZM25.875 5.25C24.4944 5.25 23.375 6.36937 23.375 7.75C23.375 9.13062 24.4944 10.25 25.875 10.25C27.2556 10.25 28.375 9.13062 28.375 7.75C28.375 6.36937 27.2556 5.25 25.875 5.25Z" fill="#006E33"/>
<path d="M35.7119 23.2944C35.6156 23.6412 35.48 23.97 35.3062 24.2769L35.9281 25.5856C35.6456 25.9462 35.3212 26.2706 34.9606 26.5531L33.6519 25.9312C33.3456 26.105 33.0162 26.2406 32.6694 26.3369L32.1831 27.7044C31.9587 27.7319 31.7319 27.75 31.5 27.75C31.2681 27.75 31.0413 27.7319 30.8169 27.7044L30.3306 26.3369C29.9838 26.2406 29.655 26.105 29.3481 25.9312L28.0394 26.5531C27.6788 26.2706 27.3544 25.9462 27.0719 25.5856L27.6937 24.2769C27.52 23.9706 27.3844 23.6413 27.2881 23.295L25.9206 22.8088C25.8931 22.5838 25.875 22.3569 25.875 22.125C25.875 21.8931 25.8931 21.6663 25.9206 21.4419L27.2881 20.9556C27.3844 20.6088 27.52 20.28 27.6937 19.9737L27.0719 18.665C27.3544 18.3044 27.6788 17.98 28.0394 17.6975L29.3481 18.3194C29.6544 18.1456 29.9838 18.01 30.3306 17.9137L30.8169 16.5462C31.0413 16.5181 31.2681 16.5 31.5 16.5C31.7319 16.5 31.9587 16.5181 32.1831 16.5456L32.6694 17.9131C33.0162 18.0094 33.345 18.145 33.6519 18.3187L34.9606 17.6969C35.3212 17.9794 35.6456 18.3037 35.9281 18.6644L35.3062 19.9731C35.48 20.2794 35.6156 20.6088 35.7119 20.9556L37.0794 21.4419C37.1069 21.6663 37.125 21.8931 37.125 22.125C37.125 22.3569 37.1069 22.5837 37.0794 22.8081L35.7119 23.2944ZM31.5 20.25C30.4644 20.25 29.625 21.0894 29.625 22.125C29.625 23.1606 30.4644 24 31.5 24C32.5356 24 33.375 23.1606 33.375 22.125C33.375 21.0894 32.5356 20.25 31.5 20.25Z" fill="#006E33"/>
<path d="M37.2473 2.13748L33.5092 1.38998L32.7617 5.12748L33.9873 5.37311L34.3242 3.69061C34.9298 4.95061 35.2498 6.33936 35.2498 7.74998C35.2498 9.90498 34.5386 11.9312 33.1936 13.6094L34.1692 14.3912C35.6723 12.5156 36.4998 10.1575 36.4998 7.74998C36.4998 6.11311 36.1217 4.49936 35.4023 3.04311L37.0023 3.36311L37.2473 2.13748Z" fill="#006E33"/>
<path d="M13.8168 7.30814L12.933 8.19189L13.7824 9.04126C13.4387 9.01938 13.0943 9.00001 12.7499 9.00001C7.91492 9.00001 3.36367 11.1319 0.263672 14.8494L1.22367 15.65C4.08555 12.2181 8.28617 10.25 12.7499 10.25C13.068 10.25 13.3855 10.2681 13.703 10.2881L12.933 11.0581L13.8168 11.9419L16.1337 9.62501L13.8168 7.30814Z" fill="#006E33"/>
</svg>

